<svg xmlns="http://www.w3.org/2000/svg" width="22" height="16" viewBox="0 0 22 16">
    <path fill="#0E2B3B" fill-rule="nonzero" stroke="#0E2B3B" stroke-width=".7" d="M5.17 15.393a4.173 4.173 0 0 0 4.158-3.899.554.554 0 0 0 .014-.12 1.66 1.66 0 0 1 3.316 0 .54.54 0 0 0 .014.12 4.173 4.173 0 0 0 4.158 3.899c2.3 0 4.17-1.871 4.17-4.17 0-.72-.183-1.398-.505-1.989a.55.55 0 0 0-.062-.19c-1.147-2.099-3.339-6.194-3.447-6.423a2.784 2.784 0 0 0-2.525-1.62c-1.53 0-2.33 1.244-2.33 2.775l.001.934.005.061a2.461 2.461 0 0 0-2.273-.006l.004-.055.002-.934C9.87 2.245 8.847 1 7.317 1a2.783 2.783 0 0 0-2.525 1.62c-.11.233-2.078 4.326-3.225 6.424a.555.555 0 0 0-.061.19A4.145 4.145 0 0 0 1 11.221c0 2.3 1.87 4.17 4.17 4.17zm14.712-4.17a3.056 3.056 0 0 1-3.052 3.052 3.056 3.056 0 0 1-3.054-3.053 3.057 3.057 0 0 1 3.054-3.054 3.057 3.057 0 0 1 3.052 3.054zm-5.421-9.328c.637-.074 1.313.1 1.73.969.082.168 2.01 4.187 2.01 4.423-.43-.15-.89-.236-1.371-.236-1.32 0-2.497.618-3.262 1.578l-.543-5.097c.011-.904.532-1.533 1.436-1.637zM9.696 6.84v-.005-.005l.014-.16c.086-.598.628-1.061 1.284-1.061.714 0 1.295.55 1.295 1.226 0 .056.01.108.026.159l.164 2.036a2.756 2.756 0 0 0-2.96 0l.177-2.19zM5.585 3.086c.27-.588.991-1.288 1.872-1.184 1.23.145 1.506.948 1.517 1.853l-.543 4.874A4.164 4.164 0 0 0 5.169 7.05c-.48 0-.94.086-1.37.236 0 0 1.709-4.03 1.786-4.2zm-.416 5.082a3.058 3.058 0 0 1 3.055 3.054 3.057 3.057 0 0 1-3.055 3.053 3.056 3.056 0 0 1-3.052-3.053 3.057 3.057 0 0 1 3.052-3.054z"/>
</svg>
