<?xml version="1.0" encoding="utf-8"?>
<!-- Generator: Adobe Illustrator 20.1.0, SVG Export Plug-In . SVG Version: 6.00 Build 0)  -->
<svg version="1.1" id="Layer_1" xmlns="http://www.w3.org/2000/svg" xmlns:xlink="http://www.w3.org/1999/xlink" x="0px" y="0px"
	 viewBox="0 0 64 64" style="enable-background:new 0 0 64 64;" xml:space="preserve">
<style type="text/css">
	.st0{fill:#18BAB4;}
	.st1{fill:#2B4D68;}
</style>
<g>
	<g>
		<g>
			<g>
				<path class="st0" d="M27.9,47.1c-1.8,0.7-2.2,2.7-2.3,3.8c4.6,1,9.4,0.2,10.8-0.1c0.7-2.1,2.3-5.1,3.8-7.5h-5.4
					c-0.1,1.6-2,2.2-4.1,2.9C29.7,46.5,28.8,46.7,27.9,47.1z"/>
				<ellipse class="st0" cx="18.8" cy="45" rx="0.9" ry="0.9"/>
				<path class="st0" d="M24,50.9c0.1-1.3,0.7-4.2,3.3-5.3c1-0.4,2-0.7,2.9-1c1.1-0.3,2.6-0.8,3-1.3h-7.4c0,0.8-0.6,1.4-1.3,1.4
					c-0.7,0-1.3-0.6-1.3-1.4h-2.9c0.4,0.4,0.7,1,0.7,1.7c0,1.2-1,2.2-2.1,2.2c-1.2,0-2.1-1-2.1-2.2c0-0.7,0.3-1.3,0.7-1.7h-5.6
					c1.7,1.8,3.5,4.2,5.3,7.8C17.2,51.3,18.4,52.3,24,50.9z"/>
			</g>
			<path class="st0" d="M46.4,51.2c0.2,0.8,1.2,0.9,1.7,0.3l1.7-2.1c0.5,0.4,1,0.8,1.6,1.2c1.6,0.9,3.8,1.7,6.2,1
				c0.5-0.1,0.9-0.3,1.3-0.5c-1.3-1.2-2.3-2.8-2.8-4.6c-0.3-1-0.4-2.1-0.4-3.2h-4.6c-1.1,1.2-1.8,2.6-2.1,3.5l-2.6-1.1
				c-0.7-0.3-1.4,0.4-1.3,1.1L46.4,51.2z"/>
			<path class="st0" d="M60.5,50.1c1.9-1.9,2.5-4.7,2.4-4.8c0.1-0.3,0-0.5-0.2-0.8c-0.1-0.1-0.5-0.6-1.3-1.2h-3.7
				c-0.1,0.9,0,1.8,0.3,2.7C58.4,47.6,59.3,48.9,60.5,50.1z"/>
		</g>
	</g>
	<g>
		<g>
			<path class="st1" d="M52.5,20.2L52.5,20.2L52.5,20.2c-2.5,0.4-8.3,1.2-9.8-0.4c-0.4-0.4-0.5-0.9-0.4-1.3c0.6-2.3-4.9-3.6-6.7-1.8
				c-0.5,0.5-0.3,1.7,0.3,2.7c0.4,0.5,0.2,1.2-0.7,1.6c-1.8,0.8-5.6,0.1-7.3-1.3c-0.8-0.6-1.1-1.3-1.2-2c-0.1-1.1,0.7-2,1.6-3
				l0.3-0.4c0.1-0.2,0.1-0.2,0.1-0.3c-0.2-0.6-2.2-1.8-6-2.3c-3.5-0.5-6.2,0.9-6.4,1.5c1.1,1.1,1.5,2.3,1.3,3.3
				c-0.2,0.8-0.7,1.4-1.6,1.7c-2,0.7-4.2-0.2-5.6-2.4c-0.2-0.3-0.5-0.5-1-0.5C8.1,15.2,6,16.2,5,17.8c-3.4,5.1,2.6,5.5,5,5.7
				c2.6,0.3,4.3,1.2,4.8,2c0.8,1.1,0.6,2.1,0.3,2.5c-1.1,2.1-5.4,2.8-8.9,2.5c-1.2-0.1-2.1,0-2.6,0.3l-0.1,0.1
				c-0.2,0.2-0.4,0.4-0.4,0.6c-0.2,1.1,1.8,3.1,5.7,3.9c3.1,0.7,3.6-0.4,4.3-1.7c0.1-0.2,0.2-0.5,0.4-0.7c0.3-0.5,1-0.9,1.8-1.1
				c1.7-0.3,4.5,0.2,5.2,0.8l0.1,0.1c0.9,0.7,1.6,1.7,0.2,3.7c0.2,0.2,0.8,0.7,2,1c1.6,0.5,2.8,0.4,3.1,0.3c0.2-0.8,0.9-1.5,1.9-2
				c1.1-0.5,2.6-0.8,3.8-0.2c1.6,0.8,1.1,2.8,0.9,3.9c0,0.2-0.1,0.5-0.1,0.6c0.1,0.1,0.3,0.1,0.5,0.2c0.7,0.3,2.1,0.8,1.9,2.3l0,0
				h5.4c0.7-1.2,1.4-2.3,2-3c3.7-5,9.1-9.2,12.7-11.7c-1.8-0.2-3.9-1-5.9-2.5c-2.7-2.1-4.6-1.7-5-1.2c-0.1,0.1-0.1,0.2,0,0.4
				c1,1.1,1,2.1,0.9,2.7c-0.1,0.5-0.4,0.9-0.7,1.3l0,0l0,0l0,0c-0.5,0.5-3.4,3.7-5.2,7.7c-0.1,0.3-0.4,0.5-0.7,0.5
				c-0.1,0-0.2,0-0.3-0.1c-0.4-0.2-0.6-0.7-0.4-1.1c0.8-1.9,1.9-3.5,2.8-4.9c-1.2,0.4-2.4,0.6-3.4,0.6c-1.2,0-2.2-0.3-3-0.9
				c-0.8-0.7-1.3-1.7-1.2-2.9c0.1-0.9-0.5-1.5-1.1-1.6c-0.7,0.1-1.4,0.8-1.7,2c-0.6,2.6-2.3,2.9-3,2.8c-1.5,0-3.3-1.3-3.5-2.4
				c-0.1-0.4,0.2-0.9,0.6-1s0.8,0.2,0.9,0.6c0.1,0.3,1.2,1.2,2.1,1.1c0.2,0,1-0.1,1.3-1.6c0.6-2.6,2.2-3.3,3.5-3.1
				c1.5,0.2,2.5,1.7,2.4,3.4c0,0.6,0.1,1.1,0.6,1.5c0.8,0.6,2.5,0.9,5.3-0.1c1.6-0.6,2.4-1.1,2.8-1.6l0.1-0.1
				c0.2-0.2,0.3-0.4,0.3-0.6c0.1-0.3-0.1-0.7-0.5-1.2c-0.7-0.8-0.7-1.8-0.1-2.6c1.1-1.4,4-1.5,7.1,0.9c2.9,2.2,6,2.6,7.8,2
				c0.6-0.3,1-0.6,1.1-0.7c0.2-0.2,0.3-0.4,0.4-0.6c0.3-0.9,0-1.8-0.7-2.7C57.3,20.6,54.6,19.7,52.5,20.2z M17.8,24.7
				c-0.7,0-1.2-0.6-1.2-1.3c0-0.7,0.5-1.3,1.2-1.3s1.2,0.6,1.2,1.3S18.4,24.7,17.8,24.7z M20.8,30.5c-0.5,0-0.8-0.4-0.8-0.9
				s0.4-0.9,0.8-0.9c0.5,0,0.8,0.4,0.8,0.9C21.7,30.1,21.3,30.5,20.8,30.5z M48,28.1c0.7,0,1.3,0.6,1.3,1.4s-0.6,1.4-1.3,1.4
				s-1.3-0.6-1.3-1.4S47.3,28.1,48,28.1z M44.4,32c0.5,0,0.8,0.4,0.8,0.9s-0.4,0.9-0.8,0.9c-0.5,0-0.8-0.4-0.8-0.9
				C43.5,32.4,43.9,32,44.4,32z M23.2,23.7c-0.4,0-0.8-0.4-0.8-0.8s0.4-0.8,0.8-0.8s0.8,0.4,0.8,0.8S23.6,23.7,23.2,23.7z
				 M37.4,24.7c-0.7,0-1.2-0.6-1.2-1.3c0-0.7,0.5-1.3,1.2-1.3s1.2,0.6,1.2,1.3C38.6,24.1,38,24.7,37.4,24.7z M38.9,20.6
				c-0.5,0-0.8-0.4-0.8-0.9s0.4-0.9,0.8-0.9s0.8,0.4,0.8,0.9S39.3,20.6,38.9,20.6z"/>
			<path class="st1" d="M18.9,42.1c0.5,0,1,0.2,1.4,0.6h2.9l0,0c0-0.8,0.6-1.4,1.3-1.4c0.7,0,1.3,0.6,1.3,1.4l0,0h7.4
				c0-0.1,0.1-0.1,0.1-0.2c0-0.2-0.1-0.3-0.9-0.6c-0.6-0.2-1.5-0.6-1.5-1.6c0-0.3,0.1-0.7,0.2-1.2c0.2-1,0.4-1.9,0-2.1
				c-0.5-0.3-1.6-0.2-2.4,0.2c-0.6,0.3-0.9,0.7-1,1c-0.1,0.4-0.4,1-1.5,1.2c-1.8,0.3-5.7-0.6-6.6-2.2c-0.3-0.6-0.3-1.2,0.1-1.7
				c0.7-1,0.6-1.1,0.1-1.5h-0.1c-0.7-0.5-4.3-0.9-4.8-0.2c-0.1,0.2-0.2,0.4-0.3,0.6c-0.8,1.4-1.8,3.4-6,2.5c-4.5-1-6.8-3.3-6.9-5.3
				c-0.4,0.3-0.7,0.8-0.8,1.3c-0.3,1.3,0.5,2.7,2,3.7c0.8,0.5,1.6,1,2.5,1.5c1.9,1,3.1,2.2,5.4,4.6h6.6
				C17.8,42.3,18.3,42.1,18.9,42.1z M14.6,40.4c-0.5,0-0.8-0.4-0.8-0.9s0.4-0.9,0.8-0.9c0.5,0,0.8,0.4,0.8,0.9
				C15.4,40,15,40.4,14.6,40.4z"/>
		</g>
	</g>
	<g>
		<path class="st1" d="M58.1,40.8c-0.2,0.6-0.3,1.2-0.3,1.8h2.7C60.1,42,59.5,41.2,58.1,40.8z"/>
	</g>
	<path class="st1" d="M51.2,42.7h4.6c0-0.7,0.1-1.5,0.3-2.2c-0.5,0-0.9,0.1-1.4,0.1C53.2,41,52.1,41.8,51.2,42.7z"/>
</g>
</svg>
