<?xml version="1.0" encoding="utf-8"?>
<!-- Generator: Adobe Illustrator 20.1.0, SVG Export Plug-In . SVG Version: 6.00 Build 0)  -->
<svg version="1.1" id="Layer_1" xmlns="http://www.w3.org/2000/svg" xmlns:xlink="http://www.w3.org/1999/xlink" x="0px" y="0px"
	 viewBox="0 0 64 64" style="enable-background:new 0 0 64 64;" xml:space="preserve">
<style type="text/css">
	.st0{fill:#2B4D68;}
	.st1{fill:#18BAB4;}
</style>
<g>
	<g transform="translate(0, 0)">
		<circle class="st0" cx="21.6" cy="15" r="6.6"/>
		<g>
			<path class="st0" d="M28.7,42l-11.2-8.9C17.3,33,17,33,16.7,33c-0.3,0-0.5,0.2-0.7,0.4l-5.5,8.6L28.7,42L28.7,42z"/>
			<path class="st0" d="M42.3,20.2c-0.2-0.3-0.5-0.5-0.8-0.5c-0.4,0-0.7,0.1-0.9,0.4L28,37.5l3.2,4.5h23L42.3,20.2z"/>
		</g>
	</g>
	<path class="st1" d="M61.2,55.3c0.2-0.3,0.2-0.7,0-0.9l-6.4-11.5h-23l2.7,3.9l-4.9-3.9H10.2L2.9,54.3c-0.2,0.3-0.2,0.7,0,0.9
		c0.1,0.4,0.4,0.6,0.8,0.6h56.7C60.7,55.8,61,55.6,61.2,55.3z"/>
</g>
</svg>
