<?xml version="1.0" encoding="utf-8"?>
<!-- Generator: Adobe Illustrator 20.1.0, SVG Export Plug-In . SVG Version: 6.00 Build 0)  -->
<svg version="1.1" id="Layer_1" xmlns="http://www.w3.org/2000/svg" xmlns:xlink="http://www.w3.org/1999/xlink" x="0px" y="0px"
	 viewBox="0 0 64 64" style="enable-background:new 0 0 64 64;" xml:space="preserve">
<style type="text/css">
	.st0{fill:#18BAB4;}
	.st1{fill:#2B4D68;}
</style>
<g>
	<path class="st0" d="M0.1,45.2v2.9c1.4,0,2.7-0.3,3.9-0.8c1.2-0.6,2.6-0.9,4-0.9s2.8,0.3,4,0.9c1.2,0.5,2.5,0.8,3.9,0.8
		s2.7-0.3,3.9-0.8c1.2-0.6,2.6-0.9,4.1-0.9c1.4,0,2.8,0.3,4,0.9c1.2,0.5,2.5,0.8,3.9,0.8c1.4,0,2.7-0.3,3.9-0.8
		c1.2-0.6,2.6-0.9,4-0.9s2.8,0.3,4,0.9c1.2,0.5,2.5,0.8,3.9,0.8s2.7-0.3,3.9-0.8c1.2-0.6,2.6-0.9,4-0.9s2.8,0.3,4,0.9
		c1.2,0.5,2.5,0.8,3.9,0.8v-2.9H0.1z"/>
	<path class="st1" d="M63.9,44.5v-3c-1.4,0-2.7-0.3-3.9-0.8c-1.2-0.6-2.6-0.9-4-0.9s-2.8,0.3-4,0.9c-1.2,0.5-2.5,0.8-3.9,0.8
		s-2.7-0.3-3.9-0.8c-1.2-0.6-2.6-0.9-4-0.9s-2.8,0.3-4,0.9c-1.2,0.5-2.5,0.8-3.9,0.8c-1.2,0-2.4-0.2-3.4-0.6c-0.9-0.5-1.8-1.2-2.5-2
		c-1.5-1.8-2.2-4.3-1.7-6.6c0.6-2.9,3.1-4.8,6.1-4.7c2.9,0.1,4.8,2.5,5.7,5c0.2,0.6,0.4,1.2,0.5,1.8c0,0,5.9-9.6-6.9-12.5
		c-6.6-1.1-12.7,1.7-17.1,6.5c-2.6,2.9-5.4,7.9-7,11.7c-0.6,0.2-1.2,0.3-1.7,0.6c-1.2,0.5-2.5,0.8-3.9,0.8v3H63.9z"/>
	<path class="st1" d="M35.9,35.2c-0.5-2.9-2-6.6-5.5-6.6c-0.6,0-1.2,0.1-1.8,0.3c0.7,0.2,1.6,0.6,1.9,1.4s-0.1,1.7,0.2,2.6
		c0.6,1.6,2.2,1.6,3,0.2C33.5,34.3,34.5,35.6,35.9,35.2z"/>
</g>
</svg>
