<?xml version="1.0" encoding="utf-8"?>
<!-- Generator: Adobe Illustrator 20.1.0, SVG Export Plug-In . SVG Version: 6.00 Build 0)  -->
<svg version="1.1" id="Layer_1" xmlns="http://www.w3.org/2000/svg" xmlns:xlink="http://www.w3.org/1999/xlink" x="0px" y="0px"
	 viewBox="0 0 126.1 128.9" style="enable-background:new 0 0 126.1 128.9;" xml:space="preserve">
<style type="text/css">
	.st0{fill:url(#SVGID_1_);}
	.st1{opacity:0.2;}
	.st2{fill:#072036;}
</style>
<g>
	<linearGradient id="SVGID_1_" gradientUnits="userSpaceOnUse" x1="63.0376" y1="7.8287" x2="63.0376" y2="114.1689">
		<stop  offset="0.5" style="stop-color:#FFFFFF;stop-opacity:0"/>
		<stop  offset="1" style="stop-color:#FFFFFF"/>
	</linearGradient>
	<path class="st0" d="M63.1,17c23.6,0,44.1,17.6,47.1,41.6c3.2,26-15.2,49.7-41.3,53c-2,0.2-4,0.4-5.9,0.4
		c-23.6,0-44.1-17.6-47.1-41.6c-3.2-26,15.2-49.7,41.3-53C59.2,17.1,61.1,17,63.1,17 M63.1,14c-2.1,0-4.2,0.1-6.3,0.4
		C29.2,17.8,9.5,43,12.9,70.7c3.1,25.2,24.6,44.3,50,44.3c2.1,0,4.2-0.1,6.3-0.4c13.4-1.7,25.3-8.4,33.6-19.1
		c8.3-10.6,11.9-23.9,10.3-37.2C110,33,88.5,14,63.1,14L63.1,14z"/>
	<g class="st1">
		<ellipse transform="matrix(0.9924 -0.1232 0.1232 0.9924 -7.4584 8.2561)" class="st2" cx="63" cy="64.4" rx="47.5" ry="47.5"/>
	</g>
</g>
</svg>
