<?xml version="1.0" encoding="utf-8"?>
<!-- Generator: Adobe Illustrator 20.1.0, SVG Export Plug-In . SVG Version: 6.00 Build 0)  -->
<svg version="1.1" id="Layer_1" xmlns="http://www.w3.org/2000/svg" xmlns:xlink="http://www.w3.org/1999/xlink" x="0px" y="0px"
	 viewBox="0 0 126.1 128.9" style="enable-background:new 0 0 126.1 128.9;" xml:space="preserve">
<style type="text/css">
	.st0{fill:url(#SVGID_1_);}
</style>
<g>
	<g>
		
			<linearGradient id="SVGID_1_" gradientUnits="userSpaceOnUse" x1="67.2947" y1="8.0204" x2="67.2947" y2="118.7631" gradientTransform="matrix(0.9999 -1.225701e-02 1.225701e-02 0.9999 -5.0291 1.8802)">
			<stop  offset="0.5" style="stop-color:#FFFFFF;stop-opacity:0"/>
			<stop  offset="1" style="stop-color:#FFFFFF"/>
		</linearGradient>
		<path class="st0" d="M63,119.8c-14.5,0-28.2-5.6-38.7-15.7C13.8,93.7,7.9,79.9,7.7,65.1l0,0C7.3,34.6,31.8,9.5,62.4,9.1
			c14.8-0.2,28.8,5.4,39.3,15.7c10.6,10.3,16.5,24.2,16.7,39s-5.4,28.8-15.7,39.3s-24.2,16.5-39,16.7
			C63.5,119.8,63.2,119.8,63,119.8z M63.1,10.1c-0.2,0-0.5,0-0.7,0c-30,0.4-54.1,25.1-53.7,55l0,0c0.2,14.5,6,28.1,16.4,38.2
			c10.4,10.1,24.1,15.6,38.6,15.5c14.5-0.2,28.1-6,38.2-16.4c10.1-10.4,15.6-24.1,15.5-38.6c-0.2-14.5-6-28.1-16.4-38.2
			C90.8,15.5,77.3,10.1,63.1,10.1z"/>
	</g>
</g>
</svg>
