<?xml version="1.0" encoding="utf-8"?>
<!-- Generator: Adobe Illustrator 20.1.0, SVG Export Plug-In . SVG Version: 6.00 Build 0)  -->
<svg version="1.1" id="Layer_1" xmlns="http://www.w3.org/2000/svg" xmlns:xlink="http://www.w3.org/1999/xlink" x="0px" y="0px"
	 viewBox="0 0 126.1 128.9" style="enable-background:new 0 0 126.1 128.9;" xml:space="preserve">
<style type="text/css">
	.st0{fill:url(#SVGID_1_);}
	.st1{fill:url(#SVGID_2_);}
	.st2{opacity:0.2;}
	.st3{fill:#072036;}
</style>
<g>
	<g>
		
			<linearGradient id="SVGID_1_" gradientUnits="userSpaceOnUse" x1="66.2268" y1="4.984" x2="66.2268" y2="115.7267" gradientTransform="matrix(0.9999 -1.225701e-02 1.225701e-02 0.9999 -5.0291 1.8802)">
			<stop  offset="0.5" style="stop-color:#FFFFFF;stop-opacity:0"/>
			<stop  offset="1" style="stop-color:#FFFFFF"/>
		</linearGradient>
		<path class="st0" d="M61.9,116.8c-14.5,0-28.2-5.6-38.7-15.7C12.7,90.7,6.7,76.9,6.6,62.1l0,0C6.2,31.6,30.7,6.4,61.3,6.1
			C76,5.9,90,11.5,100.6,21.8c10.6,10.3,16.5,24.2,16.7,39s-5.4,28.8-15.7,39.3s-24.2,16.5-39,16.7
			C62.4,116.8,62.1,116.8,61.9,116.8z M62,7c-0.2,0-0.5,0-0.7,0c-30,0.4-54.1,25.1-53.7,55l0,0c0.2,14.5,6,28.1,16.4,38.2
			c10.4,10.1,24.1,15.6,38.6,15.5c14.5-0.2,28.1-6,38.2-16.4C111,89,116.5,75.3,116.3,60.8c-0.2-14.5-6-28.1-16.4-38.2
			C89.7,12.5,76.2,7,62,7z"/>
	</g>
	<linearGradient id="SVGID_2_" gradientUnits="userSpaceOnUse" x1="61.9344" y1="4.8062" x2="61.9344" y2="111.1465">
		<stop  offset="0.5" style="stop-color:#FFFFFF;stop-opacity:0"/>
		<stop  offset="1" style="stop-color:#FFFFFF"/>
	</linearGradient>
	<path class="st1" d="M62,13.9c23.6,0,44.1,17.6,47.1,41.6c3.2,26-15.2,49.7-41.3,53c-2,0.2-4,0.4-5.9,0.4
		c-23.6,0-44.1-17.6-47.1-41.6c-3.2-26,15.2-49.7,41.3-53C58.1,14,60,13.9,62,13.9 M62,10.9c-2.1,0-4.2,0.1-6.3,0.4
		C28.1,14.7,8.4,40,11.8,67.6c3.1,25.2,24.6,44.3,50,44.3c2.1,0,4.2-0.1,6.3-0.4c13.4-1.7,25.3-8.4,33.6-19.1
		c8.3-10.6,11.9-23.9,10.3-37.2C108.9,30,87.4,10.9,62,10.9L62,10.9z"/>
	<g class="st2">
		<ellipse transform="matrix(0.9924 -0.1232 0.1232 0.9924 -7.0945 8.0972)" class="st3" cx="61.9" cy="61.4" rx="47.5" ry="47.5"/>
	</g>
</g>
</svg>
