<?xml version="1.0" encoding="utf-8"?>
<!-- Generator: Adobe Illustrator 21.1.0, SVG Export Plug-In . SVG Version: 6.00 Build 0)  -->
<svg version="1.1" id="Layer_1" xmlns="http://www.w3.org/2000/svg" xmlns:xlink="http://www.w3.org/1999/xlink" x="0px" y="0px"
	 viewBox="0 0 506 487" style="enable-background:new 0 0 506 487;" xml:space="preserve">
<style type="text/css">
	.st0{fill:none;stroke:#2B4D68;stroke-dasharray:4,4;}
	.st1{fill:none;stroke:#2B4D68;}
	.st2{fill:#FFFFFF;}
	.st3{font-family:'ProximaNova-Bold';}
	.st4{font-size:14px;}
	.st5{font-family:'PierSans-Medium';}
	.st6{font-size:12px;}
	.st7{letter-spacing:3;}
	.st8{fill:#0664F6;fill-opacity:0.181;stroke:#0664F6;stroke-width:2;}
	.st9{fill:#8366E4;fill-opacity:0.181;stroke:#8366E4;stroke-width:2;}
	.st10{fill:#11D1AE;fill-opacity:0.2;stroke:#11D1AE;}
	.st11{fill:#0664F6;}
	.st12{fill:#8366E4;}
	.st13{fill:#11D1AE;}
	.st14{font-family:'PierSans-Light';}
	.st15{font-family:'SourceSansPro-Regular';}
</style>
<g transform="translate(-37 -876)">
	<g transform="translate(87 874)">
		<circle class="st0" cx="203.5" cy="177.5" r="28.5"/>
		<circle class="st0" cx="202" cy="176" r="51"/>
		<circle class="st0" cx="202" cy="176" r="74"/>
		<circle class="st0" cx="203" cy="177" r="97"/>
		<path class="st1" d="M203,299V55 M202,176l105,62"/>
		<path class="st1" d="M202,176L97,238"/>
		<g transform="matrix(1 0 0 -1 97 177)">
			<path class="st1" d="M105.8,0.2l105.8,61.6"/>
			<path class="st1" d="M106,0.2L0.2,61.8"/>
		</g>
		<text transform="matrix(1 0 0 1 184.498 14)" class="st2 st3 st4">0,75%</text>
		<text transform="matrix(1 0 0 1 161 32)" class="st2 st5 st6 st7">MAMMALS</text>
		<text transform="matrix(1 0 0 1 188.436 319)" class="st2 st3 st4">0,15%</text>
		<text transform="matrix(1 0 0 1 173 339)" class="st2 st5 st6 st7">PLANTS</text>
		<text transform="matrix(1 0 0 1 357.487 86)" class="st2 st3 st4">0,80%</text>
		<text transform="matrix(1 0 0 1 332 105)" class="st2 st5 st6 st7">REPTILES</text>
		<text transform="matrix(1 0 0 1 37.473 86)" class="st2 st3 st4">0,50%</text>
		<text transform="matrix(1 0 0 1 0 105)" class="st2 st5 st6 st7">AMPHIBIANS</text>
		<g transform="translate(310 225)">
			<text transform="matrix(1 0 0 1 54.029 14)" class="st2 st3 st4">0,20%</text>
			<text transform="matrix(1 0 0 1 0 37)" class="st2 st5 st6 st7">INVERTEBRATES</text>
		</g>
		<text transform="matrix(1 0 0 1 33.029 243)" class="st2 st3 st4">0,20%</text>
		<text transform="matrix(1 0 0 1 26.224 262)" class="st2 st5 st6 st7">BIRDS</text>
		<polygon class="st8" points="204,96 140.1,140.3 120,225.1 204,254 268,214.6 268,140.3 		"/>
		<polygon class="st9" points="203.5,129 154,147.9 157.7,202.4 203.5,231 258,205.9 248.8,153.1 		"/>
		<polygon class="st10" points="203.5,149 176,160.1 176,190.2 203.5,199 243,199 214.2,170.2 		"/>
	</g>
	<g transform="translate(97 1254)">
		<g transform="translate(0 5)">
			<rect y="0" class="st11" width="16" height="16"/>
			<rect x="222" y="0" class="st12" width="16" height="16"/>
			<rect y="65" class="st13" width="16" height="16"/>
		</g>
		<text transform="matrix(1 0 0 1 252 19)" class="st2 st14 st4">Species in Protected </text>
		<text transform="matrix(1 0 0 1 252 39)" class="st2 st14 st4">Areas</text>
		<text transform="matrix(1 0 0 1 29 81)" class="st2 st15 st4">Reduced-range species </text>
		<text transform="matrix(1 0 0 1 29 101)" class="st2 st15 st4">in Protected Areas</text>
		<text transform="matrix(1 0 0 1 30 17)" class="st2 st14 st4">Total Species</text>
	</g>
</g>
</svg>
