<svg xmlns="http://www.w3.org/2000/svg" width="53" height="72" viewBox="0 0 53 72" xmlns:xlink="http://www.w3.org/1999/xlink">
  <defs>
    <path id="b" d="M20.6237194,57.5000071 C10.6298349,57.5000071 2.49999286,49.3701651 2.49999286,39.3762806 L2.49999286,24.7387071 L16.121829,24.7387071 L16.121829,25.7372126 C16.121829,28.1811375 18.1090666,30.169661 20.5529916,30.169661 C23.3190068,30.169661 25.1256955,28.0485121 25.1256955,25.7372126 L25.1256955,24.7387071 L38.7476174,24.7387071 L38.7476174,39.3762806 C38.7476174,49.3701651 30.6176039,57.5000071 20.6237194,57.5000071 Z M19.3749661,2.5668628 L19.3749661,16.9785359 C17.5052653,17.4984068 16.121829,19.1982751 16.121829,21.2316358 L16.121829,22.2387143 L2.49999286,22.2387143 L2.49999286,20.6274915 C2.49999286,11.0551448 9.96396453,3.21301506 19.3749661,2.5668628 Z M20.6130031,19.301752 C20.6214904,19.3018378 20.6043443,19.301752 20.6130031,19.301752 C21.8482109,19.301752 22.6257026,20.2251574 22.6257026,21.2316358 L22.6257026,25.7372126 C22.6257026,26.7458342 21.8638139,27.6695825 20.5529916,27.6695825 C19.4884735,27.6695825 18.6218219,26.8030166 18.6218219,25.7372126 L18.6218219,21.2316358 C18.6218219,20.2164129 19.4287192,19.301752 20.6130031,19.301752 Z M38.7476174,20.6274915 L38.7476174,22.2387143 L25.1256955,22.2387143 L25.1256955,21.2316358 C25.1256955,19.1992181 23.7434595,17.4998643 21.8749589,16.9792217 L21.8749589,2.56703426 C31.2849317,3.21447248 38.7476174,11.0558307 38.7476174,20.6274915 Z M20.6496958,0.00497238043 C20.6409513,0.00471518834 20.6338356,0 20.6250054,0 C20.616518,0 20.6094881,0.00462945764 20.601258,0.00471518834 C9.23945441,0.0171461394 0,9.26303035 0,20.6274915 L0,39.3762806 C0,50.7482861 9.2517139,60 20.6237194,60 C31.9958106,60 41.2476103,50.7482861 41.2476103,39.3762806 L41.2476103,20.6274915 C41.2476103,9.26414485 32.0096133,0.0191179454 20.6496958,0.00497238043 Z"/>
    <filter id="a" width="143.6%" height="130%" x="-21.8%" y="-15%" filterUnits="objectBoundingBox">
      <feOffset in="SourceAlpha" result="shadowOffsetOuter1"/>
      <feGaussianBlur stdDeviation="3" in="shadowOffsetOuter1" result="shadowBlurOuter1"/>
      <feColorMatrix values="0 0 0 0 0.333530619 0 0 0 0 1 0 0 0 0 0.975315949 0 0 0 0.380463089 0" in="shadowBlurOuter1"/>
    </filter>
  </defs>
  <g fill="none" fill-rule="evenodd" transform="translate(6 6)">
    <path fill="#BAFAFC" d="M41,1 L41,18 C39.6666667,17.3333333 38.6666667,18.3333333 38,21 C37.3333333,23.6666667 31.6666667,24.3333333 21,23 C22.0388051,15.6387075 23.7054717,10.6387075 26,8 C28.2945283,5.3612925 33.2945283,3.02795917 41,1 Z" transform="matrix(-1 0 0 1 62 0)"/>
    <use fill="black" filter="url(#a)" xlink:href="#b"/>
    <use fill="#18BAB4" xlink:href="#b"/>
  </g>
</svg>
