<svg xmlns="http://www.w3.org/2000/svg" width="63" height="54" viewBox="0 0 63 54" xmlns:xlink="http://www.w3.org/1999/xlink">
  <defs>
    <polygon id="a" points=".006 .34 44.568 .34 44.568 52.071 .006 52.071"/>
    <path id="d" d="M44.3367619,38.9891957 C42.4552381,36.41571 40.736,31.68801 40.0590476,27.2237529 C39.4228571,23.0217814 38.0868571,18.9667671 36.0921905,15.1767386 C35.2567619,13.5733243 33.2914286,12.9106671 31.5173333,13.7198957 C30.8335238,14.0296243 30.2819048,14.5364529 29.9211429,15.17211 L29.1939048,13.9690671 C28.2666667,12.4219671 26.2662857,11.8684671 24.5394286,12.7779814 C23.9573333,13.0826957 23.4838095,13.5339814 23.1584762,14.0809243 L23.0392381,13.8784243 C22.1070476,12.32901 20.0853333,11.7959529 18.3459048,12.7077814 C17.7584762,13.0151957 17.2815238,13.4641671 16.9497143,14.00841 L9.91390476,1.96872429 C8.9832381,0.41931 6.97866667,-0.125318571 5.26095238,0.775324286 C4.42438095,1.21465286 3.81409524,1.95021 3.54209524,2.84352429 C3.27771429,3.70906714 3.36495238,4.62321 3.78438095,5.40968143 L11.6982857,20.4880243 C12.9748571,22.9731814 14.2384762,26.4746957 14.1615238,29.13381 L6.43961905,23.38011 C3.10857143,22.10301 1.73333333,22.92651 0.590095238,24.6645386 C0.475428571,24.8388814 0.408761905,25.0390671 0.395047619,25.2461957 C0.302857143,26.67681 2.24609524,28.8290957 6.12914286,31.6116386 C7.46057143,32.6607814 8.4247619,33.7122386 9.35771429,34.7316814 C11.2857143,36.8372957 12.7222857,40.5945386 17.0259048,41.6880386 C23.5893333,43.3516243 29.6297143,51.5083243 29.6891429,51.5900957 C29.92,51.9036814 30.2761905,52.0714671 30.6358095,52.0714671 C30.879619,52.0714671 31.1241905,51.99471 31.335619,51.8365671 C31.8571429,51.4454529 31.9664762,50.69871 31.5805714,50.1706671 C31.3135238,49.80771 24.984381,41.2502529 17.5980952,39.3752957 C13.9718095,38.4538243 12.9127619,35.1085243 11.0834286,33.1124529 C10.1333333,32.0744957 9.05561905,30.8972957 7.53066667,29.6992671 C5.37104762,28.1494671 3.31352381,26.2883957 2.83504762,25.5744386 C3.26133333,25.0390671 3.75428571,24.9021386 5.50857143,25.5647957 L14.568,31.9815386 C14.8819048,32.1369814 15.2438095,32.1419957 15.559619,32.0000529 C15.8769524,31.85811 16.1158095,31.5811671 16.2125714,31.2440529 C17.4335238,27.0004243 14.663619,21.0974529 13.7801905,19.3806386 L5.85828571,4.28571 C5.73752381,4.06006714 5.71314286,3.79739571 5.79047619,3.54591 C5.87542857,3.26703857 6.072,3.03406714 6.43961905,2.84352429 C6.96685714,2.56233857 7.61295238,2.72241 7.89638095,3.19491 L20.0666667,24.0223243 C20.3001905,24.42231 20.7527619,24.6552814 21.2,24.5993529 L21.4445714,24.57351 C21.8342857,24.5337814 22.1775238,24.2992671 22.3622857,23.9501957 C22.5466667,23.59881 22.5466667,23.1799243 22.3622857,22.8308529 L18.904,16.2420814 C18.7539048,15.9581957 18.7870476,15.6885814 18.8407619,15.5142386 C18.9295238,15.22071 19.1386667,14.9765529 19.5272381,14.7721243 C20.0693333,14.4882386 20.743619,14.6436814 21.0217143,15.10461 L25.9020952,23.4429814 C26.135619,23.8410386 26.8011429,24.0408386 27.2582857,23.9964814 C27.6453333,23.9567529 27.9878095,23.7268671 28.1725714,23.38011 C28.3588571,23.0333529 28.3619048,22.6171671 28.184381,22.2657814 L25.1394286,16.2864386 C25.0186667,16.0607957 24.9935238,15.7977386 25.0704762,15.5466386 C25.1554286,15.2673814 25.352,15.0347957 25.7184762,14.8415529 C26.2426667,14.56731 26.8998095,14.7323957 27.1859048,15.2091386 L31.7493333,22.75911 C32.0735238,23.2940957 32.7512381,23.4850243 33.2979048,23.1941957 C33.8472381,22.9010529 34.0792381,22.2306814 33.8289524,21.6559671 L31.912381,17.2638386 C31.8053333,17.0308671 31.7961905,16.7681957 31.888381,16.5190243 C31.9893333,16.2420814 32.199619,16.0210671 32.5801905,15.8467243 C33.1211429,15.5998671 33.752,15.7907957 34.0125714,16.2933814 C35.8853333,19.84851 37.1379048,23.6477957 37.7337143,27.58671 C38.4750476,32.4721671 40.3249524,37.5045814 42.4457143,40.4086243 C42.831619,40.9339671 43.568,41.04351 44.0906667,40.65741 C44.6140952,40.2639814 44.7241905,39.5195529 44.3367619,38.9891957"/>
    <filter id="c" width="140.7%" height="134.8%" x="-20.4%" y="-17.4%" filterUnits="objectBoundingBox">
      <feOffset in="SourceAlpha" result="shadowOffsetOuter1"/>
      <feGaussianBlur stdDeviation="3" in="shadowOffsetOuter1" result="shadowBlurOuter1"/>
      <feColorMatrix values="0 0 0 0 0.333530619 0 0 0 0 1 0 0 0 0 0.975315949 0 0 0 0.380463089 0" in="shadowBlurOuter1"/>
    </filter>
    <path id="f" d="M12.0993905,9.97872857 C12.3211048,9.97872857 12.5462476,9.91624286 12.7451048,9.78317143 C13.2872,9.4206 13.4380571,8.68311429 13.0807238,8.13154286 L10.3451048,3.92494286 C10.3367238,3.9126 10.3226286,3.90565714 10.3138667,3.8937 C10.2342476,3.7803 10.1397714,3.67692857 10.0247238,3.59747143 C9.89748571,3.50991429 9.75310476,3.44704286 9.59958095,3.41541429 C9.27767619,3.33827143 8.95958095,3.41541429 8.70510476,3.59245714 L4.56262857,6.3561 C4.01900952,6.71944286 3.86929524,7.45924286 4.22700952,8.0085 C4.58510476,8.55698571 5.31729524,8.70818571 5.8559619,8.34792857 L7.63767619,7.15838571 L6.03653333,15.0393 C5.90548571,15.6834429 6.31577143,16.3140857 6.9519619,16.4444571 C7.03158095,16.4629714 7.1119619,16.4699143 7.19005714,16.4699143 C7.73710476,16.4699143 8.22624762,16.0815 8.34129524,15.5179714 L9.9424381,7.6386 L11.1157714,9.44335714 C11.3424381,9.7905 11.7169143,9.97872857 12.0993905,9.97872857"/>
    <filter id="e" width="294.8%" height="237.6%" x="-97.4%" y="-68.8%" filterUnits="objectBoundingBox">
      <feOffset in="SourceAlpha" result="shadowOffsetOuter1"/>
      <feGaussianBlur stdDeviation="3" in="shadowOffsetOuter1" result="shadowBlurOuter1"/>
      <feColorMatrix values="0 0 0 0 0.333530619 0 0 0 0 1 0 0 0 0 0.975315949 0 0 0 0.380463089 0" in="shadowBlurOuter1"/>
    </filter>
    <path id="h" d="M12.0993905,21.9787286 C12.3211048,21.9787286 12.5462476,21.9162429 12.7451048,21.7831714 C13.2872,21.4206 13.4380571,20.6831143 13.0807238,20.1315429 L10.3451048,15.9249429 C10.3367238,15.9126 10.3226286,15.9056571 10.3138667,15.8937 C10.2342476,15.7803 10.1397714,15.6769286 10.0247238,15.5974714 C9.89748571,15.5099143 9.75310476,15.4470429 9.59958095,15.4154143 C9.27767619,15.3382714 8.95958095,15.4154143 8.70510476,15.5924571 L4.56262857,18.3561 C4.01900952,18.7194429 3.86929524,19.4592429 4.22700952,20.0085 C4.58510476,20.5569857 5.31729524,20.7081857 5.8559619,20.3479286 L7.63767619,19.1583857 L6.03653333,27.0393 C5.90548571,27.6834429 6.31577143,28.3140857 6.9519619,28.4444571 C7.03158095,28.4629714 7.1119619,28.4699143 7.19005714,28.4699143 C7.73710476,28.4699143 8.22624762,28.0815 8.34129524,27.5179714 L9.9424381,19.6386 L11.1157714,21.4433571 C11.3424381,21.7905 11.7169143,21.9787286 12.0993905,21.9787286"/>
    <filter id="g" width="294.8%" height="237.6%" x="-97.4%" y="-68.8%" filterUnits="objectBoundingBox">
      <feOffset in="SourceAlpha" result="shadowOffsetOuter1"/>
      <feGaussianBlur stdDeviation="3" in="shadowOffsetOuter1" result="shadowBlurOuter1"/>
      <feColorMatrix values="0 0 0 0 0.333530619 0 0 0 0 1 0 0 0 0 0.975315949 0 0 0 0.380463089 0" in="shadowBlurOuter1"/>
    </filter>
  </defs>
  <g fill="none" fill-rule="evenodd" transform="translate(4 1)">
    <g transform="translate(14.429 .706)">
      <mask id="b" fill="white">
        <use xlink:href="#a"/>
      </mask>
      <g mask="url(#b)">
        <use fill="black" filter="url(#c)" xlink:href="#d"/>
        <use fill="#18BAB4" xlink:href="#d"/>
      </g>
    </g>
    <g transform="rotate(60 8.654 9.928)">
      <use fill="black" filter="url(#e)" xlink:href="#f"/>
      <use fill="#18BAB4" xlink:href="#f"/>
    </g>
    <g transform="rotate(-120 8.654 21.928)">
      <use fill="black" filter="url(#g)" xlink:href="#h"/>
      <use fill="#18BAB4" xlink:href="#h"/>
    </g>
  </g>
</svg>
