<svg xmlns="http://www.w3.org/2000/svg" width="42" height="58" viewBox="0 0 42 58" xmlns:xlink="http://www.w3.org/1999/xlink">
  <defs>
    <path id="b" d="M16.5171743,8.57587107 C11.3584954,8.57587107 7.16119266,12.7553302 7.16119266,17.8912233 C7.16119266,18.5461101 7.69370642,19.0763113 8.35106422,19.0763113 C9.00919266,19.0763113 9.5413211,18.5461101 9.5413211,17.8912233 C9.5413211,14.0612673 12.6708991,10.9452799 16.5171743,10.9452799 C20.3634495,10.9452799 23.4934128,14.0612673 23.4934128,17.8912233 C23.4934128,18.5461101 24.0255413,19.0763113 24.6832844,19.0763113 C25.3410275,19.0763113 25.8735413,18.5461101 25.8735413,17.8912233 C25.8735413,12.7553302 21.6758532,8.57587107 16.5171743,8.57587107"/>
    <filter id="a" width="196.2%" height="271.4%" x="-48.1%" y="-85.7%" filterUnits="objectBoundingBox">
      <feOffset in="SourceAlpha" result="shadowOffsetOuter1"/>
      <feGaussianBlur stdDeviation="3" in="shadowOffsetOuter1" result="shadowBlurOuter1"/>
      <feColorMatrix values="0 0 0 0 0.333530619 0 0 0 0 1 0 0 0 0 0.975315949 0 0 0 0.380463089 0" in="shadowBlurOuter1"/>
    </filter>
    <polygon id="c" points=".064 .371 28.347 .371 28.347 19.856 .064 19.856"/>
    <polygon id="d" points="0 .258 41.959 .258 41.959 47.572 0 47.572"/>
    <path id="g" d="M37.9371358,21.5849459 C37.0663101,21.5849459 36.259833,21.8358516 35.5570073,22.2440528 L35.5570073,21.5849459 C35.5570073,18.9711535 33.4223284,16.845361 30.7971358,16.845361 C29.8103284,16.845361 28.8932642,17.1465245 28.1326404,17.6602289 C27.4822183,15.8125811 25.7320899,14.4759522 23.6571358,14.4759522 C22.7866954,14.4759522 21.9802183,14.7268579 21.2773927,15.1350591 L21.2773927,4.99754969 C21.2773927,2.38375723 19.1427138,0.25796478 16.5171358,0.25796478 C13.8923284,0.25796478 11.7572642,2.38375723 11.7572642,4.99754969 L11.7572642,27.9086126 L7.09025505,20.0353925 C6.07917248,18.4505434 3.94064037,17.9391409 2.11537431,18.8564428 C0.557906422,19.6352478 -0.594588991,21.5097509 0.330181651,23.9152226 C0.51513578,24.428927 4.90201651,36.5802038 10.5115211,43.0699899 C10.5288606,43.0853358 12.2500899,44.6287509 13.1644569,46.8385623 C13.3540349,47.2958704 13.7979248,47.5724805 14.2649339,47.5724805 C14.4163651,47.5724805 14.5693376,47.5433233 14.7180716,47.4830906 C15.3261083,47.2333358 15.6154844,46.5412352 15.3657963,45.9362226 C14.2468239,43.231122 12.2196495,41.4110969 12.2050073,41.4110969 L12.2050073,41.4122478 C6.99739266,35.3724805 2.61629174,23.2403862 2.56273211,23.0938327 C2.0548789,21.7737006 2.73497064,21.1986126 3.18464037,20.9741786 C3.81425505,20.6592038 4.69432844,20.6998704 5.06462202,21.2807132 L11.9198697,32.8476943 C11.9456862,32.8910465 11.9873009,32.9167509 12.0169706,32.9554994 C12.0670624,33.0207195 12.1167688,33.0821031 12.1791908,33.1358138 C12.2362183,33.1841535 12.2967138,33.2209836 12.3606771,33.2574302 C12.4288789,33.2969459 12.4951541,33.3318579 12.5706771,33.3575623 C12.645044,33.3824994 12.7197963,33.3928579 12.7976312,33.4032164 C12.8488789,33.4097384 12.8943468,33.4331409 12.9475211,33.4331409 C12.9752642,33.4331409 12.9979982,33.4193296 13.025356,33.4174113 C13.1016495,33.4128075 13.1733193,33.3924742 13.2488422,33.3729082 C13.3286037,33.3514239 13.4048972,33.3318579 13.4773376,33.2954113 C13.5004569,33.2839019 13.5262734,33.2842855 13.5490073,33.2708579 C13.5933193,33.2455371 13.6191358,33.2041031 13.6584385,33.173795 C13.7235578,33.1243044 13.7840532,33.0759648 13.8376128,33.0141975 C13.8884752,32.955883 13.9262367,32.8937321 13.9639982,32.8277447 C14.0017596,32.7625245 14.0356679,32.6992226 14.0607138,32.6270969 C14.0873009,32.5488327 14.0988606,32.4709522 14.1084936,32.3884679 C14.1146587,32.3405119 14.1370073,32.297927 14.1370073,32.2480528 L14.1370073,4.99754969 C14.1370073,3.69084528 15.2051174,2.62775723 16.5171358,2.62775723 C17.8291541,2.62775723 18.8972642,3.69084528 18.8972642,4.99754969 L18.8972642,19.2151535 L18.8972642,22.7696503 C18.8972642,23.4245371 19.4293927,23.9543547 20.0875211,23.9543547 C20.7452642,23.9543547 21.2773927,23.4245371 21.2773927,22.7696503 L21.2773927,19.2151535 C21.2773927,17.9088327 22.3451174,16.845361 23.6571358,16.845361 C24.9695394,16.845361 26.0372642,17.9088327 26.0372642,19.2151535 L26.0372642,21.5849459 L26.0372642,25.1394428 C26.0372642,25.7943296 26.5693927,26.3241472 27.2271358,26.3241472 C27.8848789,26.3241472 28.4173927,25.7943296 28.4173927,25.1394428 L28.4173927,21.5849459 C28.4173927,20.2786252 29.4847321,19.2151535 30.7971358,19.2151535 C32.1091541,19.2151535 33.1768789,20.2786252 33.1768789,21.5849459 L33.1768789,26.3241472 L33.1768789,27.5088516 C33.1768789,28.1637384 33.7090073,28.6939396 34.3671358,28.6939396 C35.0248789,28.6939396 35.5570073,28.1637384 35.5570073,27.5088516 L35.5570073,26.3241472 C35.5570073,25.0178264 36.6251174,23.9543547 37.9371358,23.9543547 C39.3651358,23.9543547 39.578989,25.5096629 39.5859248,26.3099522 C39.578989,26.3717195 38.8900349,32.5511346 36.5160716,37.1936566 C34.6773193,40.791122 33.8511908,44.0686252 33.4824385,46.1848264 C33.3699248,46.8293547 33.804567,47.4428075 34.4519064,47.5548327 C34.5208789,47.5667258 34.5894661,47.5724805 34.6565119,47.5724805 C35.2248606,47.5724805 35.7280899,47.1661975 35.8278881,46.5899585 C36.1681266,44.6348893 36.931833,41.6033044 38.6364936,38.2682541 C41.2081266,33.2420843 41.9232826,26.8332478 41.9591174,26.436556 C41.9591174,23.4893736 40.3800716,21.5849459 37.9371358,21.5849459"/>
    <filter id="f" width="142.9%" height="138%" x="-21.4%" y="-19%" filterUnits="objectBoundingBox">
      <feOffset in="SourceAlpha" result="shadowOffsetOuter1"/>
      <feGaussianBlur stdDeviation="3" in="shadowOffsetOuter1" result="shadowBlurOuter1"/>
      <feColorMatrix values="0 0 0 0 0.333530619 0 0 0 0 1 0 0 0 0 0.975315949 0 0 0 0.380463089 0" in="shadowBlurOuter1"/>
    </filter>
  </defs>
  <g fill="none" fill-rule="evenodd" transform="translate(0 -3)">
    <use fill="black" filter="url(#a)" xlink:href="#b"/>
    <use fill="#18BAB4" xlink:href="#b"/>
    <g transform="translate(2.312 .013)"/>
    <g transform="translate(0 13.057)">
      <mask id="e" fill="white">
        <use xlink:href="#d"/>
      </mask>
      <g mask="url(#e)">
        <use fill="black" filter="url(#f)" xlink:href="#g"/>
        <use fill="#18BAB4" xlink:href="#g"/>
      </g>
    </g>
  </g>
</svg>
