<svg xmlns="http://www.w3.org/2000/svg" width="54" height="68" viewBox="0 0 54 68" xmlns:xlink="http://www.w3.org/1999/xlink">
  <defs>
    <path id="b" d="M21.6572128,5.07433 C19.3117633,5.07433 17.1042587,5.92325 15.3772495,7.47859 C15.0951945,7.44439 14.8092862,7.42121 14.5172128,7.42121 C9.35853394,7.42121 5.16084587,11.56093 5.16084587,16.64837 C5.16084587,17.29703 5.69335963,17.82181 6.35110275,17.82181 C7.00884587,17.82181 7.54097431,17.29703 7.54097431,16.64837 C7.54097431,12.85483 10.6705523,9.76847 14.5172128,9.76847 C14.889433,9.76847 15.247011,9.82585 15.6038183,9.88095 C15.9945339,9.94479 16.3779284,9.81103 16.6438,9.53591 C17.9766257,8.17209 19.7571945,7.42121 21.6572128,7.42121 C25.5034881,7.42121 28.6330661,10.50757 28.6330661,14.30111 C28.6330661,14.94977 29.1655798,15.47493 29.8233229,15.47493 C30.4806807,15.47493 31.0131945,14.94977 31.0131945,14.30111 C31.0131945,9.21405 26.8158917,5.07433 21.6572128,5.07433"/>
    <filter id="a" width="169.6%" height="241.2%" x="-34.8%" y="-70.6%" filterUnits="objectBoundingBox">
      <feOffset in="SourceAlpha" result="shadowOffsetOuter1"/>
      <feGaussianBlur stdDeviation="3" in="shadowOffsetOuter1" result="shadowBlurOuter1"/>
      <feColorMatrix values="0 0 0 0 0.333530619 0 0 0 0 1 0 0 0 0 0.975315949 0 0 0 0.380463089 0" in="shadowBlurOuter1"/>
    </filter>
    <path id="d" d="M1.2536422,17.834084 C1.91138532,17.834084 2.44389908,17.309304 2.44389908,16.660644 C2.44389908,10.335544 7.4696422,5.246964 13.8867798,5.078624 C14.1237523,5.071784 14.3514771,4.996164 14.5445229,4.862024 C16.5493486,3.457164 18.9013486,2.714264 21.3454404,2.714264 C27.8311651,2.714264 33.1069817,7.917224 33.1069817,14.313384 C33.1069817,14.962044 33.6391101,15.487204 34.2968532,15.487204 C34.9545963,15.487204 35.4871101,14.962044 35.4871101,14.313384 C35.4871101,6.623324 29.1431835,0.367004 21.3454404,0.367004 C18.5237339,0.367004 15.8068349,1.188944 13.4629266,2.745044 C5.92065138,3.126944 0.0637706422,9.172364 0.0637706422,16.660644 C0.0637706422,17.309304 0.595899083,17.834084 1.2536422,17.834084"/>
    <filter id="c" width="150.8%" height="203.1%" x="-25.4%" y="-51.5%" filterUnits="objectBoundingBox">
      <feOffset in="SourceAlpha" result="shadowOffsetOuter1"/>
      <feGaussianBlur stdDeviation="3" in="shadowOffsetOuter1" result="shadowBlurOuter1"/>
      <feColorMatrix values="0 0 0 0 0.333530619 0 0 0 0 1 0 0 0 0 0.975315949 0 0 0 0.380463089 0" in="shadowBlurOuter1"/>
    </filter>
    <path id="f" d="M37.9372137,31.1242 C37.0663881,31.1242 36.259911,31.37272 35.5570853,31.77704 L35.5570853,31.1242 C35.5570853,28.53526 33.4224064,26.42968 30.7975991,26.42968 C29.9263881,26.42968 29.119911,26.67858 28.4174706,27.08252 L28.4174706,14.69452 C28.4174706,12.10558 26.2824064,10 23.6572137,10 C21.5822596,10 19.8325165,11.32392 19.1820945,13.154 C18.4214706,12.64518 17.5044064,12.34726 16.5172137,12.34726 C13.8924064,12.34726 11.7577275,14.45246 11.7577275,17.0414 L11.7577275,37.38774 L7.09033301,29.58938 C6.07809448,28.0196 3.94225961,27.51306 2.11545227,28.42164 C0.557984384,29.19304 -0.594511029,31.04972 0.330259613,33.43232 C0.515599063,33.94114 4.9024798,45.97688 10.5115991,52.40496 C10.5289385,52.42016 12.2501679,53.9489 13.1649202,56.1377 C13.3541128,56.59066 13.7983881,56.86464 14.2650119,56.86464 C14.4164431,56.86464 14.5694156,56.83576 14.7181495,56.7761 C15.3261862,56.52872 15.6155624,55.8432 15.3658743,55.24394 C14.2469018,52.56456 12.2201128,50.76184 12.2050853,50.76184 L12.2050853,50.76298 C6.99747062,44.78064 2.6163697,32.7639 2.56281007,32.61874 C2.05495686,31.31116 2.7350486,30.74154 3.18471833,30.51924 C3.81433301,30.20726 4.69517704,30.24754 5.06469998,30.82286 L11.9199477,42.27986 C11.9461495,42.3228 11.9873789,42.34826 12.0170486,42.38664 C12.0671403,42.45124 12.1168468,42.51204 12.1792688,42.56524 C12.2362963,42.61312 12.2967917,42.6496 12.360755,42.6857 C12.4289569,42.72484 12.4952321,42.75942 12.5711403,42.78488 C12.6455073,42.80958 12.7198743,42.81984 12.7977092,42.8301 C12.8489569,42.83656 12.8944248,42.85974 12.9475991,42.85974 C12.9753422,42.85974 12.9984614,42.84606 13.0258192,42.84416 C13.1021128,42.8396 13.1737825,42.81946 13.2489202,42.80008 C13.3286816,42.7788 13.4049752,42.75942 13.4774156,42.72332 C13.5009202,42.71192 13.5263514,42.7123 13.5494706,42.699 C13.5933972,42.67392 13.6195991,42.63288 13.6589018,42.60286 C13.7236358,42.55384 13.7845165,42.50596 13.8376908,42.44478 C13.8885532,42.38702 13.9267,42.32546 13.9640761,42.2601 C14.0018376,42.1955 14.0357459,42.1328 14.0607917,42.06136 C14.0873789,41.98384 14.0989385,41.9067 14.1089569,41.825 C14.1147367,41.7775 14.1374706,41.73532 14.1374706,41.68592 L14.1374706,17.0414 C14.1374706,15.7475 15.2055807,14.69452 16.5172137,14.69452 C17.8292321,14.69452 18.8973422,15.7475 18.8973422,17.0414 L18.8973422,32.29764 C18.8973422,32.9463 19.4298559,33.47108 20.0875991,33.47108 C20.7453422,33.47108 21.2774706,32.9463 21.2774706,32.29764 L21.2774706,17.0414 L21.2774706,14.69452 C21.2774706,13.40024 22.3451954,12.34726 23.6572137,12.34726 C24.9696174,12.34726 26.0373422,13.40024 26.0373422,14.69452 L26.0373422,31.1242 L26.0373422,34.6449 C26.0373422,35.29356 26.5694706,35.81834 27.2272137,35.81834 C27.8849569,35.81834 28.4174706,35.29356 28.4174706,34.6449 L28.4174706,31.1242 C28.4174706,29.8303 29.4851954,28.77694 30.7975991,28.77694 C32.1092321,28.77694 33.1773422,29.8303 33.1773422,31.1242 L33.1773422,35.81834 L33.1773422,36.99178 C33.1773422,37.64044 33.7094706,38.1656 34.3672137,38.1656 C35.0249569,38.1656 35.5570853,37.64044 35.5570853,36.99178 L35.5570853,35.81834 C35.5570853,34.52444 36.6251954,33.47108 37.9372137,33.47108 C39.3655991,33.47108 39.5794523,35.0116 39.5863881,35.80428 C39.5794523,35.86546 38.8904981,41.98612 36.5161495,46.5845 C34.6777825,50.14776 33.8512688,53.3941 33.4829018,55.49018 C33.3700027,56.12858 33.8046449,56.7362 34.4519844,56.84716 C34.5209569,56.85894 34.589544,56.86464 34.6565899,56.86464 C35.2249385,56.86464 35.7281679,56.46222 35.827966,55.89146 C36.1685899,53.95498 36.9322963,50.95222 38.6365715,47.64888 C41.2085899,42.6705 41.9233605,36.3226 41.9591954,35.92968 C41.9591954,33.01052 40.3801495,31.1242 37.9372137,31.1242"/>
    <filter id="e" width="142.9%" height="138.4%" x="-21.4%" y="-19.2%" filterUnits="objectBoundingBox">
      <feOffset in="SourceAlpha" result="shadowOffsetOuter1"/>
      <feGaussianBlur stdDeviation="3" in="shadowOffsetOuter1" result="shadowBlurOuter1"/>
      <feColorMatrix values="0 0 0 0 0.333530619 0 0 0 0 1 0 0 0 0 0.975315949 0 0 0 0.380463089 0" in="shadowBlurOuter1"/>
    </filter>
  </defs>
  <g fill="none" fill-rule="evenodd" transform="translate(6 6)">
    <g transform="translate(2)">
      <use fill="black" filter="url(#a)" xlink:href="#b"/>
      <use fill="#18BAB4" xlink:href="#b"/>
      <g transform="translate(.312 .013)">
        <use fill="black" filter="url(#c)" xlink:href="#d"/>
        <use fill="#18BAB4" xlink:href="#d"/>
      </g>
    </g>
    <use fill="black" filter="url(#e)" xlink:href="#f"/>
    <use fill="#18BAB4" xlink:href="#f"/>
  </g>
</svg>
