<svg xmlns="http://www.w3.org/2000/svg" width="67" height="64" viewBox="0 0 67 64" xmlns:xlink="http://www.w3.org/1999/xlink">
  <defs>
    <path id="b" d="M8.28986667,6.81518571 C8.51158095,6.81518571 8.73672381,6.7527 8.93558095,6.61962857 C9.47767619,6.25705714 9.62853333,5.51957143 9.2712,4.968 L6.53558095,0.7614 C6.5272,0.749057143 6.51310476,0.742114286 6.50434286,0.730157143 C6.42472381,0.616757143 6.33024762,0.513385714 6.2152,0.433928571 C6.0879619,0.346371429 5.94358095,0.2835 5.79005714,0.251871429 C5.46815238,0.174728571 5.15005714,0.251871429 4.89558095,0.428914286 L0.753104762,3.19255714 C0.209485714,3.5559 0.0597714286,4.2957 0.417485714,4.84495714 C0.775580952,5.39344286 1.50777143,5.54464286 2.0464381,5.18438571 L3.82815238,3.99484286 L2.22700952,11.8757571 C2.0959619,12.5199 2.50624762,13.1505429 3.1424381,13.2809143 C3.22205714,13.2994286 3.3024381,13.3063714 3.38053333,13.3063714 C3.92758095,13.3063714 4.41672381,12.9179571 4.53177143,12.3544286 L6.13291429,4.47505714 L7.30624762,6.27981429 C7.53291429,6.62695714 7.90739048,6.81518571 8.28986667,6.81518571"/>
    <filter id="a" width="294.8%" height="237.6%" x="-97.4%" y="-68.8%" filterUnits="objectBoundingBox">
      <feOffset in="SourceAlpha" result="shadowOffsetOuter1"/>
      <feGaussianBlur stdDeviation="3" in="shadowOffsetOuter1" result="shadowBlurOuter1"/>
      <feColorMatrix values="0 0 0 0 0.333530619 0 0 0 0 1 0 0 0 0 0.975315949 0 0 0 0.380463089 0" in="shadowBlurOuter1"/>
    </filter>
    <path id="d" d="M7.41748571,24.6421286 L5.63653333,25.8305143 L7.23691429,17.9507571 C7.3679619,17.3062286 6.95805714,16.6763571 6.32148571,16.5432857 C5.6872,16.4106 5.0632,16.8271714 4.93253333,17.4713143 L3.33215238,25.3495286 L2.15881905,23.5463143 C1.80148571,22.9997571 1.07424762,22.8462429 0.529866667,23.2065 C-0.013752381,23.5698429 -0.162704762,24.3096429 0.194247619,24.8585143 L2.92986667,29.0628 C3.02739048,29.2124571 3.16567619,29.3285571 3.32110476,29.4219 C3.37100952,29.4516 3.42205714,29.4666429 3.47539048,29.4878571 C3.54281905,29.5167857 3.60148571,29.5592143 3.67539048,29.5742571 C3.75500952,29.5908429 3.83539048,29.5977857 3.91348571,29.5977857 C4.12453333,29.5977857 4.31958095,29.5252714 4.49558095,29.4215143 C4.51539048,29.4095571 4.53939048,29.4153429 4.55881905,29.4026143 L8.7112,26.6335714 C9.2544381,26.271 9.40415238,25.5331286 9.0464381,24.9819429 C8.69062857,24.435 7.9599619,24.2811 7.41748571,24.6421286"/>
    <filter id="c" width="294.8%" height="237.6%" x="-97.4%" y="-68.8%" filterUnits="objectBoundingBox">
      <feOffset in="SourceAlpha" result="shadowOffsetOuter1"/>
      <feGaussianBlur stdDeviation="3" in="shadowOffsetOuter1" result="shadowBlurOuter1"/>
      <feColorMatrix values="0 0 0 0 0.333530619 0 0 0 0 1 0 0 0 0 0.975315949 0 0 0 0.380463089 0" in="shadowBlurOuter1"/>
    </filter>
    <path id="f" d="M44.3367619,38.9891957 C42.4552381,36.41571 40.736,31.68801 40.0590476,27.2237529 C39.4228571,23.0217814 38.0868571,18.9667671 36.0921905,15.1767386 C35.2567619,13.5733243 33.2914286,12.9106671 31.5173333,13.7198957 C30.8335238,14.0296243 30.2819048,14.5364529 29.9211429,15.17211 L29.1939048,13.9690671 C28.2666667,12.4219671 26.2662857,11.8684671 24.5394286,12.7779814 C23.9573333,13.0826957 23.4838095,13.5339814 23.1584762,14.0809243 L23.0392381,13.8784243 C22.1070476,12.32901 20.0853333,11.7959529 18.3459048,12.7077814 C17.7584762,13.0151957 17.2815238,13.4641671 16.9497143,14.00841 L9.91390476,1.96872429 C8.9832381,0.41931 6.97866667,-0.125318571 5.26095238,0.775324286 C4.42438095,1.21465286 3.81409524,1.95021 3.54209524,2.84352429 C3.27771429,3.70906714 3.36495238,4.62321 3.78438095,5.40968143 L11.6982857,20.4880243 C12.9748571,22.9731814 14.2384762,26.4746957 14.1615238,29.13381 L6.05371429,25.1482243 C2.72266667,23.8711243 1.34742857,24.6946243 0.204190476,26.4326529 C0.0895238095,26.6069957 0.0228571429,26.8071814 0.00914285714,27.01431 C-0.083047619,28.4449243 1.86019048,30.59721 5.7432381,33.3797529 C7.07466667,34.4288957 8.03885714,35.4803529 8.97180952,36.4997957 C10.8998095,38.60541 12.7222857,40.5945386 17.0259048,41.6880386 C23.5893333,43.3516243 29.6297143,51.5083243 29.6891429,51.5900957 C29.92,51.9036814 30.2761905,52.0714671 30.6358095,52.0714671 C30.879619,52.0714671 31.1241905,51.99471 31.335619,51.8365671 C31.8571429,51.4454529 31.9664762,50.69871 31.5805714,50.1706671 C31.3135238,49.80771 24.984381,41.2502529 17.5980952,39.3752957 C13.9718095,38.4538243 12.5268571,36.8766386 10.6975238,34.8805671 C9.74742857,33.84261 8.66971429,32.66541 7.1447619,31.4673814 C4.98514286,29.9175814 2.92761905,28.05651 2.44914286,27.3425529 C2.87542857,26.8071814 3.36838095,26.6702529 5.12266667,27.33291 L14.568,31.9815386 C14.8819048,32.1369814 15.2438095,32.1419957 15.559619,32.0000529 C15.8769524,31.85811 16.1158095,31.5811671 16.2125714,31.2440529 C17.4335238,27.0004243 14.663619,21.0974529 13.7801905,19.3806386 L5.85828571,4.28571 C5.73752381,4.06006714 5.71314286,3.79739571 5.79047619,3.54591 C5.87542857,3.26703857 6.072,3.03406714 6.43961905,2.84352429 C6.96685714,2.56233857 7.61295238,2.72241 7.89638095,3.19491 L20.0666667,24.0223243 C20.3001905,24.42231 20.7527619,24.6552814 21.2,24.5993529 L21.4445714,24.57351 C21.8342857,24.5337814 22.1775238,24.2992671 22.3622857,23.9501957 C22.5466667,23.59881 22.5466667,23.1799243 22.3622857,22.8308529 L18.904,16.2420814 C18.7539048,15.9581957 18.7870476,15.6885814 18.8407619,15.5142386 C18.9295238,15.22071 19.1386667,14.9765529 19.5272381,14.7721243 C20.0693333,14.4882386 20.743619,14.6436814 21.0217143,15.10461 L25.9020952,23.4429814 C26.135619,23.8410386 26.8011429,24.0408386 27.2582857,23.9964814 C27.6453333,23.9567529 27.9878095,23.7268671 28.1725714,23.38011 C28.3588571,23.0333529 28.3619048,22.6171671 28.184381,22.2657814 L25.1394286,16.2864386 C25.0186667,16.0607957 24.9935238,15.7977386 25.0704762,15.5466386 C25.1554286,15.2673814 25.352,15.0347957 25.7184762,14.8415529 C26.2426667,14.56731 26.8998095,14.7323957 27.1859048,15.2091386 L31.7493333,22.75911 C32.0735238,23.2940957 32.7512381,23.4850243 33.2979048,23.1941957 C33.8472381,22.9010529 34.0792381,22.2306814 33.8289524,21.6559671 L31.912381,17.2638386 C31.8053333,17.0308671 31.7961905,16.7681957 31.888381,16.5190243 C31.9893333,16.2420814 32.199619,16.0210671 32.5801905,15.8467243 C33.1211429,15.5998671 33.752,15.7907957 34.0125714,16.2933814 C35.8853333,19.84851 37.1379048,23.6477957 37.7337143,27.58671 C38.4750476,32.4721671 40.3249524,37.5045814 42.4457143,40.4086243 C42.831619,40.9339671 43.568,41.04351 44.0906667,40.65741 C44.6140952,40.2639814 44.7241905,39.5195529 44.3367619,38.9891957"/>
    <filter id="e" width="140.4%" height="134.8%" x="-20.2%" y="-17.4%" filterUnits="objectBoundingBox">
      <feOffset in="SourceAlpha" result="shadowOffsetOuter1"/>
      <feGaussianBlur stdDeviation="3" in="shadowOffsetOuter1" result="shadowBlurOuter1"/>
      <feColorMatrix values="0 0 0 0 0.333530619 0 0 0 0 1 0 0 0 0 0.975315949 0 0 0 0.380463089 0" in="shadowBlurOuter1"/>
    </filter>
  </defs>
  <g fill="none" fill-rule="evenodd" transform="translate(6 5)">
    <g transform="translate(3.81 .164)">
      <use fill="black" filter="url(#a)" xlink:href="#b"/>
      <use fill="#18BAB4" xlink:href="#b"/>
    </g>
    <use fill="black" filter="url(#c)" xlink:href="#d"/>
    <use fill="#18BAB4" xlink:href="#d"/>
    <g transform="translate(11.429 1.706)">
      <use fill="black" filter="url(#e)" xlink:href="#f"/>
      <use fill="#18BAB4" xlink:href="#f"/>
    </g>
  </g>
</svg>
